<svg xmlns="http://www.w3.org/2000/svg" width="2400" height="1080" viewBox="0 0 2400 1080" role="img" aria-label="API Sequence: Appointment Write Path">
<defs>
  <filter id="shadow" x="-10%" y="-10%" width="120%" height="120%"><feDropShadow dx="0" dy="8" stdDeviation="8" flood-color="#27415f" flood-opacity="0.12"/></filter>
  <marker id="arrow-blue" markerWidth="16" markerHeight="16" refX="13.5" refY="7.5" orient="auto" markerUnits="userSpaceOnUse" viewBox="0 0 15 15" data-role="sequence" data-tip-direction="positive-x"><path d="M 0 0 L 15 7.5 L 0 15 Z" fill="#4f77c9" stroke="#4f77c9" stroke-dasharray="none"/></marker>
<marker id="arrow-cyan" markerWidth="16" markerHeight="16" refX="13.5" refY="7.5" orient="auto" markerUnits="userSpaceOnUse" viewBox="0 0 15 15" data-role="sequence" data-tip-direction="positive-x"><path d="M 0 0 L 15 7.5 L 0 15 Z" fill="#4aa6b5" stroke="#4aa6b5" stroke-dasharray="none"/></marker>
<marker id="arrow-green" markerWidth="16" markerHeight="16" refX="13.5" refY="7.5" orient="auto" markerUnits="userSpaceOnUse" viewBox="0 0 15 15" data-role="sequence" data-tip-direction="positive-x"><path d="M 0 0 L 15 7.5 L 0 15 Z" fill="#3c987e" stroke="#3c987e" stroke-dasharray="none"/></marker>
<marker id="arrow-amber" markerWidth="16" markerHeight="16" refX="13.5" refY="7.5" orient="auto" markerUnits="userSpaceOnUse" viewBox="0 0 15 15" data-role="sequence" data-tip-direction="positive-x"><path d="M 0 0 L 15 7.5 L 0 15 Z" fill="#d28a28" stroke="#d28a28" stroke-dasharray="none"/></marker>
<marker id="arrow-orange" markerWidth="16" markerHeight="16" refX="13.5" refY="7.5" orient="auto" markerUnits="userSpaceOnUse" viewBox="0 0 15 15" data-role="sequence" data-tip-direction="positive-x"><path d="M 0 0 L 15 7.5 L 0 15 Z" fill="#d9823b" stroke="#d9823b" stroke-dasharray="none"/></marker>
<marker id="arrow-pink" markerWidth="15" markerHeight="15" refX="13.5" refY="7.5" orient="auto" markerUnits="userSpaceOnUse"><path d="M 0 0 L 15 7.5 L 0 15 Z" fill="#d85f8d" stroke="#d85f8d"/></marker>
<marker id="arrow-purple" markerWidth="16" markerHeight="16" refX="13.5" refY="7.5" orient="auto" markerUnits="userSpaceOnUse" viewBox="0 0 15 15" data-role="sequence" data-tip-direction="positive-x"><path d="M 0 0 L 15 7.5 L 0 15 Z" fill="#8a65d8" stroke="#8a65d8" stroke-dasharray="none"/></marker>
<marker id="arrow-red" markerWidth="15" markerHeight="15" refX="13.5" refY="7.5" orient="auto" markerUnits="userSpaceOnUse"><path d="M 0 0 L 15 7.5 L 0 15 Z" fill="#ca5f66" stroke="#ca5f66"/></marker>
<marker id="arrow-slate" markerWidth="15" markerHeight="15" refX="13.5" refY="7.5" orient="auto" markerUnits="userSpaceOnUse"><path d="M 0 0 L 15 7.5 L 0 15 Z" fill="#718096" stroke="#718096"/></marker>
  <style>
    svg{font-family:"Comic Mono","Comic Sans MS",ui-sans-serif,system-ui,sans-serif}
    .canvas{fill:#f6f9fc}.frame{fill:#ffffff;stroke:#c4d5e8;stroke-width:3;filter:url(#shadow)}
    .title,.panel-title,.card-title,.state-title{font-family:"Architects Daughter","Comic Sans MS",cursive;fill:#263a57}
    .title{font-size:46px}.subtitle{font-size:17px;fill:#526276}.panel-title{font-size:27px}.card-title{font-size:24px}.state-title{font-size:22px}
    .detail,.small,.pill-text,.route-label,.footer{font-family:"Comic Mono","Comic Sans MS",ui-sans-serif,system-ui,sans-serif;fill:#526276}
    .detail{font-size:14px}.small{font-size:12px}.pill-text{font-size:13px}.route-label{font-size:13px}.footer{font-size:14px}
    .panel{stroke-width:2}.card{stroke-width:2.4;filter:url(#shadow)}.pill{stroke-width:1.8}.route{fill:none;stroke-linecap:round;stroke-linejoin:round}
    .lifeline{stroke:#b7c8dc;stroke-width:2;stroke-dasharray:8 8}.message{fill:none;stroke-width:3;stroke-linecap:round}.note{fill:#fffdf7;stroke:#d7b970;stroke-width:2}
    .table{stroke-width:2.2;filter:url(#shadow)}.table-head{font-family:"Architects Daughter";font-size:21px;fill:#263a57}.row{font-size:12.5px;fill:#526276}
  </style>
</defs>
<rect class="canvas" width="2400" height="1080"/>
<rect class="frame" x="48" y="42" width="2304" height="996" rx="34"/>
<text class="title" x="1200" y="104" text-anchor="middle">API Sequence: Appointment Write Path</text>
<text class="subtitle" x="1200" y="138" text-anchor="middle">Tenant authorization, state validation, transactional persistence, and event publication.</text>
<rect class="card" x="80" y="210" width="220" height="74" rx="12" fill="#eefbff" stroke="#4aa6b5"/><text class="card-title" x="190" y="256" text-anchor="middle">Client</text><path class="lifeline" d="M190 285 L190 910"/><rect class="card" x="360" y="210" width="240" height="74" rx="12" fill="#f5f0ff" stroke="#8a65d8"/><text class="card-title" x="480" y="256" text-anchor="middle">Tenant / JWT</text><path class="lifeline" d="M480 285 L480 910"/><rect class="card" x="665" y="210" width="230" height="74" rx="12" fill="#eef5ff" stroke="#4f77c9"/><text class="card-title" x="780" y="256" text-anchor="middle">Controller</text><path class="lifeline" d="M780 285 L780 910"/><rect class="card" x="945" y="210" width="330" height="74" rx="12" fill="#edf8f4" stroke="#3c987e"/><text class="card-title" x="1110" y="256" text-anchor="middle">AppointmentService</text><path class="lifeline" d="M1110 285 L1110 910"/><rect class="card" x="1325" y="210" width="270" height="74" rx="12" fill="#fff7e8" stroke="#d28a28"/><text class="card-title" x="1460" y="256" text-anchor="middle">StateMachine</text><path class="lifeline" d="M1460 285 L1460 910"/><rect class="card" x="1615" y="210" width="290" height="74" rx="12" fill="#eef8f4" stroke="#3c987e"/><text class="card-title" x="1760" y="256" text-anchor="middle">Repository / DB</text><path class="lifeline" d="M1760 285 L1760 910"/><rect class="card" x="1915" y="210" width="300" height="74" rx="12" fill="#fff4ea" stroke="#d9823b"/><text class="card-title" x="2065" y="256" text-anchor="middle">EventPublisher</text><path class="lifeline" d="M2065 285 L2065 910"/><rect x="473" y="342" width="14" height="88" rx="6" fill="#fff" stroke="#8a65d8" stroke-width="2"/><rect x="773" y="402" width="14" height="98" rx="6" fill="#fff" stroke="#4f77c9" stroke-width="2"/><rect x="1103" y="462" width="14" height="328" rx="6" fill="#fff" stroke="#3c987e" stroke-width="2"/><rect x="1453" y="522" width="14" height="43" rx="6" fill="#fff" stroke="#d28a28" stroke-width="2"/><rect x="1753" y="598" width="14" height="42" rx="6" fill="#fff" stroke="#3c987e" stroke-width="2"/><rect x="2058" y="672" width="14" height="43" rx="6" fill="#fff" stroke="#d9823b" stroke-width="2"/><g><rect class="pill" x="208" y="312" width="254" height="30" rx="9" fill="#fff" stroke="#cfe0f1"/><circle cx="232" cy="327" r="13" fill="#8a65d8"/><text class="route-label" x="232" y="331" text-anchor="middle" fill="#fff">1</text><text class="route-label" x="353" y="331" text-anchor="middle">Bearer token + tenantCode</text></g><path class="route" d="M190 345 L466 345" stroke="#8a65d8" stroke-width="3.1" marker-end="url(#arrow-purple)"/><g><rect class="pill" x="518.4" y="372" width="223.20000000000002" height="30" rx="9" fill="#fff" stroke="#cfe0f1"/><circle cx="542.4" cy="387" r="13" fill="#4f77c9"/><text class="route-label" x="542.4" y="391" text-anchor="middle" fill="#fff">2</text><text class="route-label" x="648" y="391" text-anchor="middle">authorized request</text></g><path class="route" d="M480 405 L766 405" stroke="#4f77c9" stroke-width="3.1" marker-end="url(#arrow-blue)"/><g><rect class="pill" x="798" y="432" width="294" height="30" rx="9" fill="#fff" stroke="#cfe0f1"/><circle cx="822" cy="447" r="13" fill="#3c987e"/><text class="route-label" x="822" y="451" text-anchor="middle" fill="#fff">3</text><text class="route-label" x="963" y="451" text-anchor="middle">create/update/cancel use case</text></g><path class="route" d="M780 465 L1096 465" stroke="#3c987e" stroke-width="3.1" marker-end="url(#arrow-green)"/><g><rect class="pill" x="1169.2" y="492" width="231.6" height="30" rx="9" fill="#fff" stroke="#cfe0f1"/><circle cx="1193.2" cy="507" r="13" fill="#d28a28"/><text class="route-label" x="1193.2" y="511" text-anchor="middle" fill="#fff">4</text><text class="route-label" x="1303" y="511" text-anchor="middle">validate transition</text></g><path class="route" d="M1110 525 L1446 525" stroke="#d28a28" stroke-width="3.1" marker-end="url(#arrow-amber)"/><g><rect class="pill" x="1289.8" y="567" width="290.4" height="30" rx="9" fill="#fff" stroke="#cfe0f1"/><circle cx="1313.8" cy="582" r="13" fill="#3c987e"/><text class="route-label" x="1313.8" y="586" text-anchor="middle" fill="#fff">5</text><text class="route-label" x="1453" y="586" text-anchor="middle">transaction save + history</text></g><path class="route" d="M1110 600 L1746 600" stroke="#3c987e" stroke-width="3.1" marker-end="url(#arrow-green)"/><g><rect class="pill" x="1467.5" y="642" width="240" height="30" rx="9" fill="#fff" stroke="#cfe0f1"/><circle cx="1491.5" cy="657" r="13" fill="#d9823b"/><text class="route-label" x="1491.5" y="661" text-anchor="middle" fill="#fff">6</text><text class="route-label" x="1605.5" y="661" text-anchor="middle">publish domain event</text></g><path class="route" d="M1110 675 L2051 675" stroke="#d9823b" stroke-width="3.1" marker-end="url(#arrow-orange)"/><g><rect class="pill" x="479.6" y="752" width="340.8" height="30" rx="9" fill="#fff" stroke="#cfe0f1"/><circle cx="503.6" cy="767" r="13" fill="#4aa6b5"/><text class="route-label" x="503.6" y="771" text-anchor="middle" fill="#fff">7</text><text class="route-label" x="668" y="771" text-anchor="middle">ApiResponse with timezone/locale</text></g><path class="route" d="M1110 785 L204 785" stroke="#4aa6b5" stroke-width="3.1" stroke-dasharray="9 7" marker-end="url(#arrow-cyan)"/><rect class="note" x="300" y="965" width="1800" height="58" rx="16"/><text class="footer" x="1200" y="1001" text-anchor="middle">Sequence uses best-practice participant headers, dashed lifelines, numbered message pills, visible arrowheads, and labels that do not touch message lines.</text>
</svg>