<?xml version="1.0" encoding="UTF-8" standalone="no"?>
<!DOCTYPE svg PUBLIC "-//W3C//DTD SVG 1.1//EN"
 "http://www.w3.org/Graphics/SVG/1.1/DTD/svg11.dtd">
<!-- Generated by graphviz version 15.1.0 (20260618.0150)
 -->
<!-- Pages: 1 -->
<svg width="1004pt" height="867pt"
 viewBox="0.00 0.00 1004.00 867.00" xmlns="http://www.w3.org/2000/svg" xmlns:xlink="http://www.w3.org/1999/xlink">
<g id="graph0" class="graph" transform="scale(1 1) rotate(0) translate(57.6 809.28)">
<polygon fill="#f7f9fc" stroke="none" points="-57.6,57.6 -57.6,-809.28 946.28,-809.28 946.28,57.6 -57.6,57.6"/>
<text xml:space="preserve" text-anchor="middle" x="149.75" y="-736.28" font-family="Architects Daughter" font-size="12.00">Appointment State Machine</text>
<text xml:space="preserve" text-anchor="middle" x="149.75" y="-719.03" font-family="Architects Daughter" font-size="12.00">10 states | 11 transitions | AppointmentStateMachine.kt</text>
<!-- PENDING -->
<g id="node1" class="node">
<title>PENDING</title>
<path fill="#f2f5f9" stroke="#9aa8b8" stroke-width="2" d="M418.68,-709.18C418.68,-709.18 345,-709.18 345,-709.18 339,-709.18 333,-703.18 333,-697.18 333,-697.18 333,-678.4 333,-678.4 333,-672.4 339,-666.4 345,-666.4 345,-666.4 418.68,-666.4 418.68,-666.4 424.68,-666.4 430.68,-672.4 430.68,-678.4 430.68,-678.4 430.68,-697.18 430.68,-697.18 430.68,-703.18 424.68,-709.18 418.68,-709.18"/>
<text xml:space="preserve" text-anchor="middle" x="381.84" y="-690.09" font-family="Comic Mono" font-size="11.00" fill="#2a3340">PENDING</text>
<text xml:space="preserve" text-anchor="middle" x="381.84" y="-677.34" font-family="Comic Mono" font-size="11.00" fill="#2a3340">unconfirmed</text>
</g>
<!-- REQUESTED -->
<g id="node2" class="node">
<title>REQUESTED</title>
<path fill="#e8f3ff" stroke="#5b8def" stroke-width="2" d="M337.68,-575.9C337.68,-575.9 204,-575.9 204,-575.9 198,-575.9 192,-569.9 192,-563.9 192,-563.9 192,-545.12 192,-545.12 192,-539.12 198,-533.12 204,-533.12 204,-533.12 337.68,-533.12 337.68,-533.12 343.68,-533.12 349.68,-539.12 349.68,-545.12 349.68,-545.12 349.68,-563.9 349.68,-563.9 349.68,-569.9 343.68,-575.9 337.68,-575.9"/>
<text xml:space="preserve" text-anchor="middle" x="270.84" y="-556.81" font-family="Comic Mono" font-size="11.00" fill="#1a3a5c">REQUESTED</text>
<text xml:space="preserve" text-anchor="middle" x="270.84" y="-544.06" font-family="Comic Mono" font-size="11.00" fill="#1a3a5c">appointment requested</text>
</g>
<!-- PENDING&#45;&gt;REQUESTED -->
<g id="edge1" class="edge">
<title>PENDING&#45;&gt;REQUESTED</title>
<path fill="none" stroke="#5b8def" stroke-width="1.8" d="M341.34,-665.48C341.34,-665.48 341.34,-587.12 341.34,-587.12"/>
<polygon fill="#5b8def" stroke="#5b8def" stroke-width="1.8" points="343.97,-587.12 341.34,-579.62 338.72,-587.12 343.97,-587.12"/>
<text xml:space="preserve" text-anchor="middle" x="364.22" y="-617.85" font-family="Comic Mono" font-size="9.00">Request</text>
</g>
<!-- CONFIRMED -->
<g id="node3" class="node">
<title>CONFIRMED</title>
<path fill="#eaf7ef" stroke="#58a978" stroke-width="2" d="M554.68,-442.62C554.68,-442.62 421,-442.62 421,-442.62 415,-442.62 409,-436.62 409,-430.62 409,-430.62 409,-411.84 409,-411.84 409,-405.84 415,-399.84 421,-399.84 421,-399.84 554.68,-399.84 554.68,-399.84 560.68,-399.84 566.68,-405.84 566.68,-411.84 566.68,-411.84 566.68,-430.62 566.68,-430.62 566.68,-436.62 560.68,-442.62 554.68,-442.62"/>
<text xml:space="preserve" text-anchor="middle" x="487.84" y="-423.53" font-family="Comic Mono" font-size="11.00" fill="#1a3a26">CONFIRMED</text>
<text xml:space="preserve" text-anchor="middle" x="487.84" y="-410.78" font-family="Comic Mono" font-size="11.00" fill="#1a3a26">appointment confirmed</text>
</g>
<!-- REQUESTED&#45;&gt;CONFIRMED -->
<g id="edge2" class="edge">
<title>REQUESTED&#45;&gt;CONFIRMED</title>
<path fill="none" stroke="#58a978" stroke-width="1.8" d="M350.34,-555C384.28,-555 416.23,-555 416.23,-555 416.23,-555 416.23,-453.54 416.23,-453.54"/>
<polygon fill="#58a978" stroke="#58a978" stroke-width="1.8" points="418.85,-453.54 416.23,-446.04 413.6,-453.54 418.85,-453.54"/>
<text xml:space="preserve" text-anchor="middle" x="404.22" y="-484.57" font-family="Comic Mono" font-size="9.00">Confirm</text>
</g>
<!-- PENDING_RESCHEDULE -->
<g id="node8" class="node">
<title>PENDING_RESCHEDULE</title>
<path fill="#f1ecff" stroke="#8a72d6" stroke-width="2" d="M153.68,-309.34C153.68,-309.34 38,-309.34 38,-309.34 32,-309.34 26,-303.34 26,-297.34 26,-297.34 26,-278.56 26,-278.56 26,-272.56 32,-266.56 38,-266.56 38,-266.56 153.68,-266.56 153.68,-266.56 159.68,-266.56 165.68,-272.56 165.68,-278.56 165.68,-278.56 165.68,-297.34 165.68,-297.34 165.68,-303.34 159.68,-309.34 153.68,-309.34"/>
<text xml:space="preserve" text-anchor="middle" x="95.84" y="-290.25" font-family="Comic Mono" font-size="11.00" fill="#2a1a5c">PENDING_RESCHEDULE</text>
<text xml:space="preserve" text-anchor="middle" x="95.84" y="-277.5" font-family="Comic Mono" font-size="11.00" fill="#2a1a5c">reschedule pending</text>
</g>
<!-- REQUESTED&#45;&gt;PENDING_RESCHEDULE -->
<g id="edge8" class="edge">
<title>REQUESTED&#45;&gt;PENDING_RESCHEDULE</title>
<path fill="none" stroke="#8a72d6" stroke-width="1.8" d="M255,-532.28C255,-470.12 255,-299 255,-299 255,-299 176.8,-299 176.8,-299"/>
<polygon fill="#8a72d6" stroke="#8a72d6" stroke-width="1.8" points="176.8,-296.38 169.3,-299 176.8,-301.63 176.8,-296.38"/>
<text xml:space="preserve" text-anchor="middle" x="131.47" y="-417.93" font-family="Comic Mono" font-size="9.00">RequestReschedule</text>
</g>
<!-- CANCELLED -->
<g id="node10" class="node">
<title>CANCELLED</title>
<path fill="#fdecef" stroke="#dc6b82" stroke-width="2" d="M391.68,-176.06C391.68,-176.06 330,-176.06 330,-176.06 324,-176.06 318,-170.06 318,-164.06 318,-164.06 318,-145.28 318,-145.28 318,-139.28 324,-133.28 330,-133.28 330,-133.28 391.68,-133.28 391.68,-133.28 397.68,-133.28 403.68,-139.28 403.68,-145.28 403.68,-145.28 403.68,-164.06 403.68,-164.06 403.68,-170.06 397.68,-176.06 391.68,-176.06"/>
<text xml:space="preserve" text-anchor="middle" x="360.84" y="-156.97" font-family="Comic Mono" font-size="11.00" fill="#4a0e1c">CANCELLED</text>
<text xml:space="preserve" text-anchor="middle" x="360.84" y="-144.22" font-family="Comic Mono" font-size="11.00" fill="#4a0e1c">cancelled</text>
</g>
<!-- REQUESTED&#45;&gt;CANCELLED -->
<g id="edge11" class="edge">
<title>REQUESTED&#45;&gt;CANCELLED</title>
<path fill="none" stroke="#dc6b82" stroke-width="1.8" stroke-dasharray="5,2" d="M333.84,-532.16C333.84,-532.16 333.84,-186.85 333.84,-186.85"/>
<polygon fill="#dc6b82" stroke="#dc6b82" stroke-width="1.8" points="336.47,-186.85 333.84,-179.35 331.22,-186.85 336.47,-186.85"/>
<text xml:space="preserve" text-anchor="middle" x="283.59" y="-351.29" font-family="Comic Mono" font-size="9.00">Cancel</text>
</g>
<!-- CONFIRMED&#45;&gt;PENDING -->
<g id="edge10" class="edge">
<title>CONFIRMED&#45;&gt;PENDING</title>
<path fill="none" stroke="#5b8def" stroke-width="1.8" stroke-dasharray="5,2" d="M423.45,-443.5C423.45,-443.5 423.45,-655.55 423.45,-655.55"/>
<polygon fill="#5b8def" stroke="#5b8def" stroke-width="1.8" points="420.83,-655.55 423.45,-663.05 426.08,-655.55 420.83,-655.55"/>
<text xml:space="preserve" text-anchor="middle" x="522.22" y="-551.21" font-family="Comic Mono" font-size="9.00">Reschedule back</text>
</g>
<!-- CHECKED_IN -->
<g id="node4" class="node">
<title>CHECKED_IN</title>
<path fill="#e9f7f6" stroke="#45a7a1" stroke-width="2" d="M693.68,-309.34C693.68,-309.34 578,-309.34 578,-309.34 572,-309.34 566,-303.34 566,-297.34 566,-297.34 566,-278.56 566,-278.56 566,-272.56 572,-266.56 578,-266.56 578,-266.56 693.68,-266.56 693.68,-266.56 699.68,-266.56 705.68,-272.56 705.68,-278.56 705.68,-278.56 705.68,-297.34 705.68,-297.34 705.68,-303.34 699.68,-309.34 693.68,-309.34"/>
<text xml:space="preserve" text-anchor="middle" x="635.84" y="-290.25" font-family="Comic Mono" font-size="11.00" fill="#0e3533">CHECKED_IN</text>
<text xml:space="preserve" text-anchor="middle" x="635.84" y="-277.5" font-family="Comic Mono" font-size="11.00" fill="#0e3533">patient checked in</text>
</g>
<!-- CONFIRMED&#45;&gt;CHECKED_IN -->
<g id="edge3" class="edge">
<title>CONFIRMED&#45;&gt;CHECKED_IN</title>
<path fill="none" stroke="#45a7a1" stroke-width="1.8" d="M562.5,-399.01C562.5,-358.55 562.5,-277 562.5,-277 562.5,-277 562.78,-277 562.78,-277"/>
<polygon fill="#45a7a1" stroke="#45a7a1" stroke-width="1.8" points="555.06,-279.63 562.56,-277 555.06,-274.38 555.06,-279.63"/>
<text xml:space="preserve" text-anchor="middle" x="622.22" y="-351.29" font-family="Comic Mono" font-size="9.00">CheckIn</text>
</g>
<!-- NO_SHOW -->
<g id="node7" class="node">
<title>NO_SHOW</title>
<path fill="#fdecef" stroke="#dc6b82" stroke-width="2" d="M876.68,-309.34C876.68,-309.34 779,-309.34 779,-309.34 773,-309.34 767,-303.34 767,-297.34 767,-297.34 767,-278.56 767,-278.56 767,-272.56 773,-266.56 779,-266.56 779,-266.56 876.68,-266.56 876.68,-266.56 882.68,-266.56 888.68,-272.56 888.68,-278.56 888.68,-278.56 888.68,-297.34 888.68,-297.34 888.68,-303.34 882.68,-309.34 876.68,-309.34"/>
<text xml:space="preserve" text-anchor="middle" x="827.84" y="-290.25" font-family="Comic Mono" font-size="11.00" fill="#4a0e1c">NO_SHOW</text>
<text xml:space="preserve" text-anchor="middle" x="827.84" y="-277.5" font-family="Comic Mono" font-size="11.00" fill="#4a0e1c">patient no&#45;show</text>
</g>
<!-- CONFIRMED&#45;&gt;NO_SHOW -->
<g id="edge6" class="edge">
<title>CONFIRMED&#45;&gt;NO_SHOW</title>
<path fill="none" stroke="#dc6b82" stroke-width="1.8" d="M567.55,-421C668.05,-421 827.84,-421 827.84,-421 827.84,-421 827.84,-320.44 827.84,-320.44"/>
<polygon fill="#dc6b82" stroke="#dc6b82" stroke-width="1.8" points="830.47,-320.44 827.84,-312.94 825.22,-320.44 830.47,-320.44"/>
<text xml:space="preserve" text-anchor="middle" x="854.09" y="-351.29" font-family="Comic Mono" font-size="9.00">MarkNoShow</text>
</g>
<!-- CONFIRMED&#45;&gt;PENDING_RESCHEDULE -->
<g id="edge7" class="edge">
<title>CONFIRMED&#45;&gt;PENDING_RESCHEDULE</title>
<path fill="none" stroke="#8a72d6" stroke-width="1.8" d="M408.04,-428C293.43,-428 95.84,-428 95.84,-428 95.84,-428 95.84,-320.37 95.84,-320.37"/>
<polygon fill="#8a72d6" stroke="#8a72d6" stroke-width="1.8" points="98.47,-320.37 95.84,-312.87 93.22,-320.37 98.47,-320.37"/>
<text xml:space="preserve" text-anchor="middle" x="410.47" y="-351.29" font-family="Comic Mono" font-size="9.00">RequestReschedule</text>
</g>
<!-- CONFIRMED&#45;&gt;CANCELLED -->
<g id="edge12" class="edge">
<title>CONFIRMED&#45;&gt;CANCELLED</title>
<path fill="none" stroke="#dc6b82" stroke-width="1.8" stroke-dasharray="5,2" d="M408.03,-414C385.83,-414 367.68,-414 367.68,-414 367.68,-414 367.68,-187 367.68,-187"/>
<polygon fill="#dc6b82" stroke="#dc6b82" stroke-width="1.8" points="370.31,-187 367.68,-179.5 365.06,-187 370.31,-187"/>
</g>
<!-- IN_PROGRESS -->
<g id="node5" class="node">
<title>IN_PROGRESS</title>
<path fill="#fff3d9" stroke="#d6a441" stroke-width="2" d="M704.68,-176.06C704.68,-176.06 571,-176.06 571,-176.06 565,-176.06 559,-170.06 559,-164.06 559,-164.06 559,-145.28 559,-145.28 559,-139.28 565,-133.28 571,-133.28 571,-133.28 704.68,-133.28 704.68,-133.28 710.68,-133.28 716.68,-139.28 716.68,-145.28 716.68,-145.28 716.68,-164.06 716.68,-164.06 716.68,-170.06 710.68,-176.06 704.68,-176.06"/>
<text xml:space="preserve" text-anchor="middle" x="637.84" y="-156.97" font-family="Comic Mono" font-size="11.00" fill="#4a3000">IN_PROGRESS</text>
<text xml:space="preserve" text-anchor="middle" x="637.84" y="-144.22" font-family="Comic Mono" font-size="11.00" fill="#4a3000">treatment in progress</text>
</g>
<!-- CHECKED_IN&#45;&gt;IN_PROGRESS -->
<g id="edge4" class="edge">
<title>CHECKED_IN&#45;&gt;IN_PROGRESS</title>
<path fill="none" stroke="#d6a441" stroke-width="1.8" d="M635.84,-265.64C635.84,-265.64 635.84,-187.28 635.84,-187.28"/>
<polygon fill="#d6a441" stroke="#d6a441" stroke-width="1.8" points="638.47,-187.28 635.84,-179.78 633.22,-187.28 638.47,-187.28"/>
<text xml:space="preserve" text-anchor="middle" x="674.59" y="-218.01" font-family="Comic Mono" font-size="9.00">StartTreatment</text>
</g>
<!-- CHECKED_IN&#45;&gt;CANCELLED -->
<g id="edge13" class="edge">
<title>CHECKED_IN&#45;&gt;CANCELLED</title>
<path fill="none" stroke="#dc6b82" stroke-width="1.8" stroke-dasharray="5,2" d="M565.16,-288C491.18,-288 385.68,-288 385.68,-288 385.68,-288 385.68,-187.21 385.68,-187.21"/>
<polygon fill="#dc6b82" stroke="#dc6b82" stroke-width="1.8" points="388.31,-187.21 385.68,-179.71 383.06,-187.21 388.31,-187.21"/>
</g>
<!-- COMPLETED -->
<g id="node6" class="node">
<title>COMPLETED</title>
<path fill="#eaf7ef" stroke="#58a978" stroke-width="2" d="M698.68,-42.78C698.68,-42.78 577,-42.78 577,-42.78 571,-42.78 565,-36.78 565,-30.78 565,-30.78 565,-12 565,-12 565,-6 571,0 577,0 577,0 698.68,0 698.68,0 704.68,0 710.68,-6 710.68,-12 710.68,-12 710.68,-30.78 710.68,-30.78 710.68,-36.78 704.68,-42.78 698.68,-42.78"/>
<text xml:space="preserve" text-anchor="middle" x="637.84" y="-23.69" font-family="Comic Mono" font-size="11.00" fill="#1a3a26">COMPLETED</text>
<text xml:space="preserve" text-anchor="middle" x="637.84" y="-10.94" font-family="Comic Mono" font-size="11.00" fill="#1a3a26">treatment completed</text>
</g>
<!-- IN_PROGRESS&#45;&gt;COMPLETED -->
<g id="edge5" class="edge">
<title>IN_PROGRESS&#45;&gt;COMPLETED</title>
<path fill="none" stroke="#58a978" stroke-width="1.8" d="M637.84,-132.36C637.84,-132.36 637.84,-54 637.84,-54"/>
<polygon fill="#58a978" stroke="#58a978" stroke-width="1.8" points="640.47,-54 637.84,-46.5 635.22,-54 640.47,-54"/>
<text xml:space="preserve" text-anchor="middle" x="658.84" y="-84.73" font-family="Comic Mono" font-size="9.00">Complete</text>
</g>
<!-- RESCHEDULED -->
<g id="node9" class="node">
<title>RESCHEDULED</title>
<path fill="#e9f7f6" stroke="#45a7a1" stroke-width="2" d="M139.68,-176.06C139.68,-176.06 12,-176.06 12,-176.06 6,-176.06 0,-170.06 0,-164.06 0,-164.06 0,-145.28 0,-145.28 0,-139.28 6,-133.28 12,-133.28 12,-133.28 139.68,-133.28 139.68,-133.28 145.68,-133.28 151.68,-139.28 151.68,-145.28 151.68,-145.28 151.68,-164.06 151.68,-164.06 151.68,-170.06 145.68,-176.06 139.68,-176.06"/>
<text xml:space="preserve" text-anchor="middle" x="75.84" y="-156.97" font-family="Comic Mono" font-size="11.00" fill="#0e3533">RESCHEDULED</text>
<text xml:space="preserve" text-anchor="middle" x="75.84" y="-144.22" font-family="Comic Mono" font-size="11.00" fill="#0e3533">reschedule completed</text>
</g>
<!-- PENDING_RESCHEDULE&#45;&gt;RESCHEDULED -->
<g id="edge9" class="edge">
<title>PENDING_RESCHEDULE&#45;&gt;RESCHEDULED</title>
<path fill="none" stroke="#45a7a1" stroke-width="1.8" d="M88.84,-265.64C88.84,-265.64 88.84,-187.28 88.84,-187.28"/>
<polygon fill="#45a7a1" stroke="#45a7a1" stroke-width="1.8" points="91.47,-187.28 88.84,-179.78 86.22,-187.28 91.47,-187.28"/>
<text xml:space="preserve" text-anchor="middle" x="120.47" y="-218.01" font-family="Comic Mono" font-size="9.00">ConfirmReschedule</text>
</g>
<!-- PENDING_RESCHEDULE&#45;&gt;CANCELLED -->
<g id="edge14" class="edge">
<title>PENDING_RESCHEDULE&#45;&gt;CANCELLED</title>
<path fill="none" stroke="#dc6b82" stroke-width="1.8" stroke-dasharray="5,2" d="M158.68,-265.7C158.68,-227.85 158.68,-155 158.68,-155 158.68,-155 307.25,-155 307.25,-155"/>
<polygon fill="#dc6b82" stroke="#dc6b82" stroke-width="1.8" points="307.25,-157.63 314.75,-155 307.25,-152.38 307.25,-157.63"/>
</g>
</g>
</svg>
