<?xml version="1.0" encoding="UTF-8" standalone="no"?>
<!DOCTYPE svg PUBLIC "-//W3C//DTD SVG 1.1//EN"
 "http://www.w3.org/Graphics/SVG/1.1/DTD/svg11.dtd">
<!-- Generated by graphviz version 15.1.0 (20260618.0150)
 -->
<!-- Pages: 1 -->
<svg width="1499pt" height="879pt"
 viewBox="0.00 0.00 1499.00 879.00" xmlns="http://www.w3.org/2000/svg" xmlns:xlink="http://www.w3.org/1999/xlink">
<g id="graph0" class="graph" transform="scale(1 1) rotate(0) translate(57.6 821.61)">
<polygon fill="#f7f9fc" stroke="none" points="-57.6,57.6 -57.6,-821.61 1441.52,-821.61 1441.52,57.6 -57.6,57.6"/>
<text xml:space="preserve" text-anchor="middle" x="203.75" y="-748.61" font-family="goorm Sans" font-size="12.00">도메인 엔티티 관계</text>
<text xml:space="preserve" text-anchor="middle" x="203.75" y="-734.36" font-family="goorm Sans" font-size="12.00">appointment&#45;core | 16 엔티티 | scheduling_* 테이블 | Exposed ORM</text>
<!-- clinics -->
<g id="node1" class="node">
<title>clinics</title>
<polygon fill="#e9f7f6" stroke="#45a7a1" stroke-width="2" points="606.75,-0.5 606.75,-107.06 856.92,-107.06 856.92,-0.5 606.75,-0.5"/>
<text xml:space="preserve" text-anchor="middle" x="731.84" y="-91.8" font-family="goorm Sans" font-size="10.00" fill="#0e3533">scheduling_clinics</text>
<polyline fill="none" stroke="#45a7a1" stroke-width="2" points="606.75,-83.54 856.92,-83.54"/>
<text xml:space="preserve" text-anchor="start" x="619.71" y="-68.28" font-family="goorm Sans" font-size="10.00" fill="#0e3533">id: Long (PK)</text>
<polyline fill="none" stroke="#45a7a1" stroke-width="2" points="606.75,-60.02 856.92,-60.02"/>
<text xml:space="preserve" text-anchor="start" x="619.71" y="-44.76" font-family="goorm Sans" font-size="10.00" fill="#0e3533">tenant_group_id (FK)</text>
<text xml:space="preserve" text-anchor="start" x="619.71" y="-32.76" font-family="goorm Sans" font-size="10.00" fill="#0e3533">name, timezone, locale</text>
<text xml:space="preserve" text-anchor="start" x="619.71" y="-20.76" font-family="goorm Sans" font-size="10.00" fill="#0e3533">slot_duration_minutes</text>
<text xml:space="preserve" text-anchor="start" x="619.71" y="-8.76" font-family="goorm Sans" font-size="10.00" fill="#0e3533">max_concurrent_patients, open_on_holidays</text>
</g>
<!-- doctors -->
<g id="node2" class="node">
<title>doctors</title>
<polygon fill="#e8f3ff" stroke="#5b8def" stroke-width="2" points="735,-205.31 735,-299.87 914.67,-299.87 914.67,-205.31 735,-205.31"/>
<text xml:space="preserve" text-anchor="middle" x="824.84" y="-284.61" font-family="goorm Sans" font-size="10.00" fill="#1a3a5c">scheduling_doctors</text>
<polyline fill="none" stroke="#5b8def" stroke-width="2" points="735,-276.35 914.67,-276.35"/>
<text xml:space="preserve" text-anchor="start" x="747.96" y="-261.09" font-family="goorm Sans" font-size="10.00" fill="#1a3a5c">id: Long (PK)</text>
<polyline fill="none" stroke="#5b8def" stroke-width="2" points="735,-252.83 914.67,-252.83"/>
<text xml:space="preserve" text-anchor="start" x="747.96" y="-237.57" font-family="goorm Sans" font-size="10.00" fill="#1a3a5c">clinic_id (FK)</text>
<text xml:space="preserve" text-anchor="start" x="747.96" y="-225.57" font-family="goorm Sans" font-size="10.00" fill="#1a3a5c">name, specialty, provider_type</text>
<text xml:space="preserve" text-anchor="start" x="747.96" y="-213.57" font-family="goorm Sans" font-size="10.00" fill="#1a3a5c">max_concurrent_patients</text>
</g>
<!-- doctors&#45;&gt;clinics -->
<g id="edge1" class="edge">
<title>doctors&#45;&gt;clinics</title>
<path fill="none" stroke="#45a7a1" stroke-width="1.8" d="M795.96,-204.46C795.96,-204.46 795.96,-117.99 795.96,-117.99"/>
<polygon fill="#45a7a1" stroke="#45a7a1" stroke-width="1.8" points="798.59,-117.99 795.96,-110.49 793.34,-117.99 798.59,-117.99"/>
<text xml:space="preserve" text-anchor="middle" x="798.46" y="-150.26" font-family="goorm Sans" font-size="9.00">clinic_id</text>
</g>
<!-- treatment_types -->
<g id="node3" class="node">
<title>treatment_types</title>
<polygon fill="#eaf7ef" stroke="#58a978" stroke-width="2" points="269.25,-199.31 269.25,-305.87 516.42,-305.87 516.42,-199.31 269.25,-199.31"/>
<text xml:space="preserve" text-anchor="middle" x="392.84" y="-290.61" font-family="goorm Sans" font-size="10.00" fill="#1a3a26">scheduling_treatment_types</text>
<polyline fill="none" stroke="#58a978" stroke-width="2" points="269.25,-282.35 516.42,-282.35"/>
<text xml:space="preserve" text-anchor="start" x="282.21" y="-267.09" font-family="goorm Sans" font-size="10.00" fill="#1a3a26">id: Long (PK)</text>
<polyline fill="none" stroke="#58a978" stroke-width="2" points="269.25,-258.83 516.42,-258.83"/>
<text xml:space="preserve" text-anchor="start" x="282.21" y="-243.57" font-family="goorm Sans" font-size="10.00" fill="#1a3a26">clinic_id (FK)</text>
<text xml:space="preserve" text-anchor="start" x="282.21" y="-231.57" font-family="goorm Sans" font-size="10.00" fill="#1a3a26">name, category</text>
<text xml:space="preserve" text-anchor="start" x="282.21" y="-219.57" font-family="goorm Sans" font-size="10.00" fill="#1a3a26">default_duration_minutes</text>
<text xml:space="preserve" text-anchor="start" x="282.21" y="-207.57" font-family="goorm Sans" font-size="10.00" fill="#1a3a26">required_provider_type, requires_equipment</text>
</g>
<!-- treatment_types&#45;&gt;clinics -->
<g id="edge2" class="edge">
<title>treatment_types&#45;&gt;clinics</title>
<path fill="none" stroke="#45a7a1" stroke-width="1.8" d="M517.29,-253C582.63,-253 649.27,-253 649.27,-253 649.27,-253 649.27,-118.18 649.27,-118.18"/>
<polygon fill="#45a7a1" stroke="#45a7a1" stroke-width="1.8" points="651.89,-118.18 649.27,-110.68 646.64,-118.18 651.89,-118.18"/>
<text xml:space="preserve" text-anchor="middle" x="498.46" y="-150.26" font-family="goorm Sans" font-size="9.00">clinic_id</text>
</g>
<!-- equipments -->
<g id="node4" class="node">
<title>equipments</title>
<polygon fill="#eef6d9" stroke="#8ba84d" stroke-width="2" points="13.13,-205.31 13.13,-299.87 208.55,-299.87 208.55,-205.31 13.13,-205.31"/>
<text xml:space="preserve" text-anchor="middle" x="110.84" y="-284.61" font-family="goorm Sans" font-size="10.00" fill="#2a3a0e">scheduling_equipments</text>
<polyline fill="none" stroke="#8ba84d" stroke-width="2" points="13.13,-276.35 208.55,-276.35"/>
<text xml:space="preserve" text-anchor="start" x="26.09" y="-261.09" font-family="goorm Sans" font-size="10.00" fill="#2a3a0e">id: Long (PK)</text>
<polyline fill="none" stroke="#8ba84d" stroke-width="2" points="13.13,-252.83 208.55,-252.83"/>
<text xml:space="preserve" text-anchor="start" x="26.09" y="-237.57" font-family="goorm Sans" font-size="10.00" fill="#2a3a0e">clinic_id (FK)</text>
<text xml:space="preserve" text-anchor="start" x="26.09" y="-225.57" font-family="goorm Sans" font-size="10.00" fill="#2a3a0e">name</text>
<text xml:space="preserve" text-anchor="start" x="26.09" y="-213.57" font-family="goorm Sans" font-size="10.00" fill="#2a3a0e">usage_duration_minutes, quantity</text>
</g>
<!-- equipments&#45;&gt;clinics -->
<g id="edge3" class="edge">
<title>equipments&#45;&gt;clinics</title>
<path fill="none" stroke="#45a7a1" stroke-width="1.8" d="M110.84,-204.52C110.84,-145.74 110.84,-54 110.84,-54 110.84,-54 595.57,-54 595.57,-54"/>
<polygon fill="#45a7a1" stroke="#45a7a1" stroke-width="1.8" points="595.57,-56.63 603.07,-54 595.57,-51.38 595.57,-56.63"/>
<text xml:space="preserve" text-anchor="middle" x="219.46" y="-150.26" font-family="goorm Sans" font-size="9.00">clinic_id</text>
</g>
<!-- appointments -->
<g id="node5" class="node">
<title>appointments</title>
<polygon fill="#fdecef" stroke="#dc6b82" stroke-width="2" points="371.75,-398.12 371.75,-540.2 597.92,-540.2 597.92,-398.12 371.75,-398.12"/>
<text xml:space="preserve" text-anchor="middle" x="484.84" y="-524.94" font-family="goorm Sans" font-size="10.00" fill="#4a0e1c">scheduling_appointments</text>
<polyline fill="none" stroke="#dc6b82" stroke-width="2" points="371.75,-516.68 597.92,-516.68"/>
<text xml:space="preserve" text-anchor="start" x="384.71" y="-501.42" font-family="goorm Sans" font-size="10.00" fill="#4a0e1c">id: Long (PK)</text>
<polyline fill="none" stroke="#dc6b82" stroke-width="2" points="371.75,-493.16 597.92,-493.16"/>
<text xml:space="preserve" text-anchor="start" x="384.71" y="-477.9" font-family="goorm Sans" font-size="10.00" fill="#4a0e1c">clinic_id, doctor_id (FK)</text>
<polyline fill="none" stroke="#dc6b82" stroke-width="2" points="371.75,-469.64 597.92,-469.64"/>
<text xml:space="preserve" text-anchor="start" x="384.71" y="-454.38" font-family="goorm Sans" font-size="10.00" fill="#4a0e1c">treatment_type_id, equipment_id (FK)</text>
<text xml:space="preserve" text-anchor="start" x="384.71" y="-442.38" font-family="goorm Sans" font-size="10.00" fill="#4a0e1c">patient_name, patient_phone</text>
<text xml:space="preserve" text-anchor="start" x="384.71" y="-430.38" font-family="goorm Sans" font-size="10.00" fill="#4a0e1c">appointment_date, start_time, end_time</text>
<text xml:space="preserve" text-anchor="start" x="384.71" y="-418.38" font-family="goorm Sans" font-size="10.00" fill="#4a0e1c">status: AppointmentState</text>
<text xml:space="preserve" text-anchor="start" x="384.71" y="-406.38" font-family="goorm Sans" font-size="10.00" fill="#4a0e1c">reschedule_from_id</text>
</g>
<!-- appointments&#45;&gt;clinics -->
<g id="edge6" class="edge">
<title>appointments&#45;&gt;clinics</title>
<path fill="none" stroke="#45a7a1" stroke-width="1.8" d="M598.9,-406C646.88,-406 691.78,-406 691.78,-406 691.78,-406 691.78,-118.27 691.78,-118.27"/>
<polygon fill="#45a7a1" stroke="#45a7a1" stroke-width="1.8" points="694.41,-118.27 691.78,-110.77 689.16,-118.27 694.41,-118.27"/>
<text xml:space="preserve" text-anchor="middle" x="656.46" y="-249.67" font-family="goorm Sans" font-size="9.00">clinic_id</text>
</g>
<!-- appointments&#45;&gt;doctors -->
<g id="edge7" class="edge">
<title>appointments&#45;&gt;doctors</title>
<path fill="none" stroke="#5b8def" stroke-width="1.8" d="M598.6,-413C666.97,-413 740.81,-413 740.81,-413 740.81,-413 740.81,-310.94 740.81,-310.94"/>
<polygon fill="#5b8def" stroke="#5b8def" stroke-width="1.8" points="743.44,-310.94 740.81,-303.44 738.19,-310.94 743.44,-310.94"/>
<text xml:space="preserve" text-anchor="middle" x="757.59" y="-349.07" font-family="goorm Sans" font-size="9.00">doctor_id</text>
</g>
<!-- appointments&#45;&gt;treatment_types -->
<g id="edge8" class="edge">
<title>appointments&#45;&gt;treatment_types</title>
<path fill="none" stroke="#58a978" stroke-width="1.8" d="M444.09,-397.35C444.09,-397.35 444.09,-316.95 444.09,-316.95"/>
<polygon fill="#58a978" stroke="#58a978" stroke-width="1.8" points="446.71,-316.95 444.09,-309.45 441.46,-316.95 446.71,-316.95"/>
<text xml:space="preserve" text-anchor="middle" x="479.71" y="-349.07" font-family="goorm Sans" font-size="9.00">treatment_type_id</text>
</g>
<!-- appointments&#45;&gt;equipments -->
<g id="edge9" class="edge">
<title>appointments&#45;&gt;equipments</title>
<path fill="none" stroke="#8ba84d" stroke-width="1.8" d="M371.14,-410C271.82,-410 143.41,-410 143.41,-410 143.41,-410 143.41,-310.9 143.41,-310.9"/>
<polygon fill="#8ba84d" stroke="#8ba84d" stroke-width="1.8" points="146.03,-310.9 143.41,-303.4 140.78,-310.9 146.03,-310.9"/>
<text xml:space="preserve" text-anchor="middle" x="327.84" y="-349.07" font-family="goorm Sans" font-size="9.00">equipment_id</text>
</g>
<!-- operating_hours -->
<g id="node6" class="node">
<title>operating_hours</title>
<polygon fill="#fff3d9" stroke="#d6a441" stroke-width="2" points="975.25,-205.31 975.25,-299.87 1162.42,-299.87 1162.42,-205.31 975.25,-205.31"/>
<text xml:space="preserve" text-anchor="middle" x="1068.84" y="-284.61" font-family="goorm Sans" font-size="10.00" fill="#4a3000">scheduling_operating_hours</text>
<polyline fill="none" stroke="#d6a441" stroke-width="2" points="975.25,-276.35 1162.42,-276.35"/>
<text xml:space="preserve" text-anchor="start" x="988.21" y="-261.09" font-family="goorm Sans" font-size="10.00" fill="#4a3000">id: Long (PK)</text>
<polyline fill="none" stroke="#d6a441" stroke-width="2" points="975.25,-252.83 1162.42,-252.83"/>
<text xml:space="preserve" text-anchor="start" x="988.21" y="-237.57" font-family="goorm Sans" font-size="10.00" fill="#4a3000">clinic_id (FK)</text>
<text xml:space="preserve" text-anchor="start" x="988.21" y="-225.57" font-family="goorm Sans" font-size="10.00" fill="#4a3000">day_of_week</text>
<text xml:space="preserve" text-anchor="start" x="988.21" y="-213.57" font-family="goorm Sans" font-size="10.00" fill="#4a3000">open_time, close_time, is_active</text>
</g>
<!-- operating_hours&#45;&gt;clinics -->
<g id="edge4" class="edge">
<title>operating_hours&#45;&gt;clinics</title>
<path fill="none" stroke="#45a7a1" stroke-width="1.8" d="M1068.84,-204.67C1068.84,-151.17 1068.84,-72 1068.84,-72 1068.84,-72 868.02,-72 868.02,-72"/>
<polygon fill="#45a7a1" stroke="#45a7a1" stroke-width="1.8" points="868.03,-69.38 860.52,-72 868.02,-74.63 868.03,-69.38"/>
<text xml:space="preserve" text-anchor="middle" x="1086.46" y="-150.26" font-family="goorm Sans" font-size="9.00">clinic_id</text>
</g>
<!-- doctor_schedules -->
<g id="node7" class="node">
<title>doctor_schedules</title>
<polygon fill="#e8f3ff" stroke="#5b8def" stroke-width="2" points="746.62,-427.88 746.62,-510.44 945.05,-510.44 945.05,-427.88 746.62,-427.88"/>
<text xml:space="preserve" text-anchor="middle" x="845.84" y="-495.18" font-family="goorm Sans" font-size="10.00" fill="#1a3a5c">scheduling_doctor_schedules</text>
<polyline fill="none" stroke="#5b8def" stroke-width="2" points="746.62,-486.92 945.05,-486.92"/>
<text xml:space="preserve" text-anchor="start" x="759.59" y="-471.66" font-family="goorm Sans" font-size="10.00" fill="#1a3a5c">id: Long (PK)</text>
<polyline fill="none" stroke="#5b8def" stroke-width="2" points="746.62,-463.4 945.05,-463.4"/>
<text xml:space="preserve" text-anchor="start" x="759.59" y="-448.14" font-family="goorm Sans" font-size="10.00" fill="#1a3a5c">doctor_id (FK)</text>
<text xml:space="preserve" text-anchor="start" x="759.59" y="-436.14" font-family="goorm Sans" font-size="10.00" fill="#1a3a5c">day_of_week, start_time, end_time</text>
</g>
<!-- doctor_schedules&#45;&gt;doctors -->
<g id="edge10" class="edge">
<title>doctor_schedules&#45;&gt;doctors</title>
<path fill="none" stroke="#5b8def" stroke-width="1.8" d="M830.65,-426.89C830.65,-426.89 830.65,-311.02 830.65,-311.02"/>
<polygon fill="#5b8def" stroke="#5b8def" stroke-width="1.8" points="833.27,-311.02 830.65,-303.52 828.02,-311.02 833.27,-311.02"/>
<text xml:space="preserve" text-anchor="middle" x="867.59" y="-349.07" font-family="goorm Sans" font-size="9.00">doctor_id</text>
</g>
<!-- doctor_absences -->
<g id="node8" class="node">
<title>doctor_absences</title>
<polygon fill="#e8f3ff" stroke="#5b8def" stroke-width="2" points="1006,-421.88 1006,-516.44 1179.67,-516.44 1179.67,-421.88 1006,-421.88"/>
<text xml:space="preserve" text-anchor="middle" x="1092.84" y="-501.18" font-family="goorm Sans" font-size="10.00" fill="#1a3a5c">scheduling_doctor_absences</text>
<polyline fill="none" stroke="#5b8def" stroke-width="2" points="1006,-492.92 1179.67,-492.92"/>
<text xml:space="preserve" text-anchor="start" x="1018.96" y="-477.66" font-family="goorm Sans" font-size="10.00" fill="#1a3a5c">id: Long (PK)</text>
<polyline fill="none" stroke="#5b8def" stroke-width="2" points="1006,-469.4 1179.67,-469.4"/>
<text xml:space="preserve" text-anchor="start" x="1018.96" y="-454.14" font-family="goorm Sans" font-size="10.00" fill="#1a3a5c">doctor_id (FK)</text>
<text xml:space="preserve" text-anchor="start" x="1018.96" y="-442.14" font-family="goorm Sans" font-size="10.00" fill="#1a3a5c">absence_date</text>
<text xml:space="preserve" text-anchor="start" x="1018.96" y="-430.14" font-family="goorm Sans" font-size="10.00" fill="#1a3a5c">start_time, end_time (opt)</text>
</g>
<!-- doctor_absences&#45;&gt;doctors -->
<g id="edge11" class="edge">
<title>doctor_absences&#45;&gt;doctors</title>
<path fill="none" stroke="#5b8def" stroke-width="1.8" d="M1005.07,-469C980.39,-469 960.15,-469 960.15,-469 960.15,-469 960.15,-253 960.15,-253 960.15,-253 925.69,-253 925.69,-253"/>
<polygon fill="#5b8def" stroke="#5b8def" stroke-width="1.8" points="925.69,-250.38 918.19,-253 925.69,-255.63 925.69,-250.38"/>
<text xml:space="preserve" text-anchor="middle" x="1114.59" y="-349.07" font-family="goorm Sans" font-size="9.00">doctor_id</text>
</g>
<!-- clinic_closures -->
<g id="node9" class="node">
<title>clinic_closures</title>
<polygon fill="#fff3d9" stroke="#d6a441" stroke-width="2" points="1223.75,-205.31 1223.75,-299.87 1383.92,-299.87 1383.92,-205.31 1223.75,-205.31"/>
<text xml:space="preserve" text-anchor="middle" x="1303.84" y="-284.61" font-family="goorm Sans" font-size="10.00" fill="#4a3000">scheduling_clinic_closures</text>
<polyline fill="none" stroke="#d6a441" stroke-width="2" points="1223.75,-276.35 1383.92,-276.35"/>
<text xml:space="preserve" text-anchor="start" x="1236.71" y="-261.09" font-family="goorm Sans" font-size="10.00" fill="#4a3000">id: Long (PK)</text>
<polyline fill="none" stroke="#d6a441" stroke-width="2" points="1223.75,-252.83 1383.92,-252.83"/>
<text xml:space="preserve" text-anchor="start" x="1236.71" y="-237.57" font-family="goorm Sans" font-size="10.00" fill="#4a3000">clinic_id (FK)</text>
<text xml:space="preserve" text-anchor="start" x="1236.71" y="-225.57" font-family="goorm Sans" font-size="10.00" fill="#4a3000">closure_date, is_full_day</text>
<text xml:space="preserve" text-anchor="start" x="1236.71" y="-213.57" font-family="goorm Sans" font-size="10.00" fill="#4a3000">start_time, end_time (opt)</text>
</g>
<!-- clinic_closures&#45;&gt;clinics -->
<g id="edge5" class="edge">
<title>clinic_closures&#45;&gt;clinics</title>
<path fill="none" stroke="#45a7a1" stroke-width="1.8" d="M1303.84,-204.52C1303.84,-140.71 1303.84,-36 1303.84,-36 1303.84,-36 867.94,-36 867.94,-36"/>
<polygon fill="#45a7a1" stroke="#45a7a1" stroke-width="1.8" points="867.94,-33.38 860.44,-36 867.94,-38.63 867.94,-33.38"/>
<text xml:space="preserve" text-anchor="middle" x="1321.46" y="-150.26" font-family="goorm Sans" font-size="9.00">clinic_id</text>
</g>
<!-- holidays -->
<g id="node10" class="node">
<title>holidays</title>
<polygon fill="#fff3d9" stroke="#d6a441" stroke-width="2" points="795.75,-650.21 795.75,-709.25 985.92,-709.25 985.92,-650.21 795.75,-650.21"/>
<text xml:space="preserve" text-anchor="middle" x="890.84" y="-693.99" font-family="goorm Sans" font-size="10.00" fill="#4a3000">scheduling_holidays</text>
<polyline fill="none" stroke="#d6a441" stroke-width="2" points="795.75,-685.73 985.92,-685.73"/>
<text xml:space="preserve" text-anchor="start" x="808.71" y="-670.47" font-family="goorm Sans" font-size="10.00" fill="#4a3000">id: Long (PK)</text>
<text xml:space="preserve" text-anchor="start" x="808.71" y="-658.47" font-family="goorm Sans" font-size="10.00" fill="#4a3000">holiday_date, name, is_recurring</text>
</g>
<!-- equip_unavail -->
<g id="node11" class="node">
<title>equip_unavail</title>
<polygon fill="#eef6d9" stroke="#8ba84d" stroke-width="2" points="0,-421.88 0,-516.44 221.67,-516.44 221.67,-421.88 0,-421.88"/>
<text xml:space="preserve" text-anchor="middle" x="110.84" y="-501.18" font-family="goorm Sans" font-size="10.00" fill="#2a3a0e">scheduling_equipment_unavailabilities</text>
<polyline fill="none" stroke="#8ba84d" stroke-width="2" points="0,-492.92 221.67,-492.92"/>
<text xml:space="preserve" text-anchor="start" x="12.96" y="-477.66" font-family="goorm Sans" font-size="10.00" fill="#2a3a0e">id: Long (PK)</text>
<polyline fill="none" stroke="#8ba84d" stroke-width="2" points="0,-469.4 221.67,-469.4"/>
<text xml:space="preserve" text-anchor="start" x="12.96" y="-454.14" font-family="goorm Sans" font-size="10.00" fill="#2a3a0e">equipment_id (FK)</text>
<text xml:space="preserve" text-anchor="start" x="12.96" y="-442.14" font-family="goorm Sans" font-size="10.00" fill="#2a3a0e">start_datetime, end_datetime</text>
<text xml:space="preserve" text-anchor="start" x="12.96" y="-430.14" font-family="goorm Sans" font-size="10.00" fill="#2a3a0e">recurrence_rule</text>
</g>
<!-- equip_unavail&#45;&gt;equipments -->
<g id="edge12" class="edge">
<title>equip_unavail&#45;&gt;equipments</title>
<path fill="none" stroke="#8ba84d" stroke-width="1.8" d="M78.26,-421.1C78.26,-421.1 78.26,-310.74 78.26,-310.74"/>
<polygon fill="#8ba84d" stroke="#8ba84d" stroke-width="1.8" points="80.89,-310.74 78.27,-303.24 75.64,-310.74 80.89,-310.74"/>
<text xml:space="preserve" text-anchor="middle" x="140.84" y="-349.07" font-family="goorm Sans" font-size="9.00">equipment_id</text>
</g>
<!-- resched_cand -->
<g id="node12" class="node">
<title>resched_cand</title>
<polygon fill="#f1ecff" stroke="#8a72d6" stroke-width="2" points="239.13,-632.45 239.13,-727.01 452.55,-727.01 452.55,-632.45 239.13,-632.45"/>
<text xml:space="preserve" text-anchor="middle" x="345.84" y="-711.75" font-family="goorm Sans" font-size="10.00" fill="#2a1a5c">scheduling_reschedule_candidates</text>
<polyline fill="none" stroke="#8a72d6" stroke-width="2" points="239.13,-703.49 452.55,-703.49"/>
<text xml:space="preserve" text-anchor="start" x="252.09" y="-688.23" font-family="goorm Sans" font-size="10.00" fill="#2a1a5c">id: Long (PK)</text>
<polyline fill="none" stroke="#8a72d6" stroke-width="2" points="239.13,-679.97 452.55,-679.97"/>
<text xml:space="preserve" text-anchor="start" x="252.09" y="-664.71" font-family="goorm Sans" font-size="10.00" fill="#2a1a5c">appointment_id, clinic_id (FK)</text>
<text xml:space="preserve" text-anchor="start" x="252.09" y="-652.71" font-family="goorm Sans" font-size="10.00" fill="#2a1a5c">proposed_date, proposed_start_time</text>
<text xml:space="preserve" text-anchor="start" x="252.09" y="-640.71" font-family="goorm Sans" font-size="10.00" fill="#2a1a5c">status, score</text>
</g>
<!-- resched_cand&#45;&gt;appointments -->
<g id="edge13" class="edge">
<title>resched_cand&#45;&gt;appointments</title>
<path fill="none" stroke="#dc6b82" stroke-width="1.8" d="M412.15,-631.68C412.15,-631.68 412.15,-551.21 412.15,-551.21"/>
<polygon fill="#dc6b82" stroke="#dc6b82" stroke-width="1.8" points="414.77,-551.21 412.15,-543.71 409.52,-551.21 414.77,-551.21"/>
<text xml:space="preserve" text-anchor="middle" x="381.09" y="-583.4" font-family="goorm Sans" font-size="9.00">appointment_id</text>
</g>
<!-- state_history -->
<g id="node13" class="node">
<title>state_history</title>
<polygon fill="#f2f5f9" stroke="#9aa8b8" stroke-width="2" points="513.38,-632.45 513.38,-727.01 734.3,-727.01 734.3,-632.45 513.38,-632.45"/>
<text xml:space="preserve" text-anchor="middle" x="623.84" y="-711.75" font-family="goorm Sans" font-size="10.00" fill="#2a3340">scheduling_appointment_state_history</text>
<polyline fill="none" stroke="#9aa8b8" stroke-width="2" points="513.38,-703.49 734.3,-703.49"/>
<text xml:space="preserve" text-anchor="start" x="526.34" y="-688.23" font-family="goorm Sans" font-size="10.00" fill="#2a3340">id: Long (PK)</text>
<polyline fill="none" stroke="#9aa8b8" stroke-width="2" points="513.38,-679.97 734.3,-679.97"/>
<text xml:space="preserve" text-anchor="start" x="526.34" y="-664.71" font-family="goorm Sans" font-size="10.00" fill="#2a3340">appointment_id (FK)</text>
<text xml:space="preserve" text-anchor="start" x="526.34" y="-652.71" font-family="goorm Sans" font-size="10.00" fill="#2a3340">from_state, to_state, event</text>
<text xml:space="preserve" text-anchor="start" x="526.34" y="-640.71" font-family="goorm Sans" font-size="10.00" fill="#2a3340">occurred_at</text>
</g>
<!-- state_history&#45;&gt;appointments -->
<g id="edge14" class="edge">
<title>state_history&#45;&gt;appointments</title>
<path fill="none" stroke="#9aa8b8" stroke-width="1.8" d="M555.65,-631.68C555.65,-631.68 555.65,-551.21 555.65,-551.21"/>
<polygon fill="#9aa8b8" stroke="#9aa8b8" stroke-width="1.8" points="558.27,-551.21 555.65,-543.71 553.02,-551.21 558.27,-551.21"/>
<text xml:space="preserve" text-anchor="middle" x="659.09" y="-583.4" font-family="goorm Sans" font-size="9.00">appointment_id</text>
</g>
</g>
</svg>
