<svg xmlns="http://www.w3.org/2000/svg" width="2000" height="960" viewBox="0 0 2000 960" role="img" aria-label="Clinic Appointment Module Overview">
<defs>
  <filter id="shadow" x="-10%" y="-10%" width="120%" height="120%"><feDropShadow dx="0" dy="8" stdDeviation="8" flood-color="#27415f" flood-opacity="0.12"/></filter>
  <marker id="arrow-blue" markerWidth="14" markerHeight="14" refX="13.5" refY="7.5" orient="auto" markerUnits="userSpaceOnUse" viewBox="0 0 15 15" data-role="primary" data-tip-direction="positive-x"><path d="M 0 0 L 15 7.5 L 0 15 Z" fill="#4f77c9" stroke="#4f77c9" stroke-dasharray="none"/></marker>
<marker id="arrow-cyan" markerWidth="15" markerHeight="15" refX="13.5" refY="7.5" orient="auto" markerUnits="userSpaceOnUse"><path d="M 0 0 L 15 7.5 L 0 15 Z" fill="#4aa6b5" stroke="#4aa6b5"/></marker>
<marker id="arrow-teal" markerWidth="15" markerHeight="15" refX="13.5" refY="7.5" orient="auto" markerUnits="userSpaceOnUse"><path d="M 0 0 L 15 7.5 L 0 15 Z" fill="#2f9f93" stroke="#2f9f93"/></marker>
<marker id="arrow-green" markerWidth="14" markerHeight="14" refX="13.5" refY="7.5" orient="auto" markerUnits="userSpaceOnUse" viewBox="0 0 15 15" data-role="primary" data-tip-direction="positive-x"><path d="M 0 0 L 15 7.5 L 0 15 Z" fill="#3c987e" stroke="#3c987e" stroke-dasharray="none"/></marker>
<marker id="arrow-amber" markerWidth="14" markerHeight="14" refX="13.5" refY="7.5" orient="auto" markerUnits="userSpaceOnUse" viewBox="0 0 15 15" data-role="primary" data-tip-direction="positive-x"><path d="M 0 0 L 15 7.5 L 0 15 Z" fill="#d28a28" stroke="#d28a28" stroke-dasharray="none"/></marker>
<marker id="arrow-orange" markerWidth="15" markerHeight="15" refX="13.5" refY="7.5" orient="auto" markerUnits="userSpaceOnUse"><path d="M 0 0 L 15 7.5 L 0 15 Z" fill="#d9823b" stroke="#d9823b"/></marker>
<marker id="arrow-pink" markerWidth="15" markerHeight="15" refX="13.5" refY="7.5" orient="auto" markerUnits="userSpaceOnUse"><path d="M 0 0 L 15 7.5 L 0 15 Z" fill="#d85f8d" stroke="#d85f8d"/></marker>
<marker id="arrow-purple" markerWidth="14" markerHeight="14" refX="13.5" refY="7.5" orient="auto" markerUnits="userSpaceOnUse" viewBox="0 0 15 15" data-role="primary" data-tip-direction="positive-x"><path d="M 0 0 L 15 7.5 L 0 15 Z" fill="#8a65d8" stroke="#8a65d8" stroke-dasharray="none"/></marker>
<marker id="arrow-red" markerWidth="14" markerHeight="14" refX="13.5" refY="7.5" orient="auto" markerUnits="userSpaceOnUse" viewBox="0 0 15 15" data-role="primary" data-tip-direction="positive-x"><path d="M 0 0 L 15 7.5 L 0 15 Z" fill="#ca5f66" stroke="#ca5f66" stroke-dasharray="none"/></marker>
<marker id="arrow-slate" markerWidth="15" markerHeight="15" refX="13.5" refY="7.5" orient="auto" markerUnits="userSpaceOnUse"><path d="M 0 0 L 15 7.5 L 0 15 Z" fill="#718096" stroke="#718096"/></marker>
  <style>
    svg{font-family:"Comic Mono","Comic Sans MS",ui-sans-serif,system-ui,sans-serif}
    .canvas{fill:#f6f9fc}.frame{fill:#ffffff;stroke:#c4d5e8;stroke-width:3;filter:url(#shadow)}
    .title,.panel-title,.card-title,.state-title{font-family:"Architects Daughter","Comic Sans MS",cursive;fill:#263a57}
    .title{font-size:46px}.subtitle{font-size:17px;fill:#526276}.panel-title{font-size:27px}.card-title{font-size:24px}.state-title{font-size:22px}
    .detail,.small,.pill-text,.route-label,.footer{font-family:"Comic Mono","Comic Sans MS",ui-sans-serif,system-ui,sans-serif;fill:#526276}
    .detail{font-size:14px}.small{font-size:12px}.pill-text{font-size:13px}.route-label{font-size:13px}.footer{font-size:14px}
    .panel{stroke-width:2}.card{stroke-width:2.4;filter:url(#shadow)}.pill{stroke-width:1.8}.route{fill:none;stroke-linecap:round;stroke-linejoin:round}
    .lifeline{stroke:#b7c8dc;stroke-width:2;stroke-dasharray:8 8}.message{fill:none;stroke-width:3;stroke-linecap:round}.note{fill:#fffdf7;stroke:#d7b970;stroke-width:2}
    .table{stroke-width:2.2;filter:url(#shadow)}.table-head{font-family:"Architects Daughter";font-size:21px;fill:#263a57}.row{font-size:12.5px;fill:#526276}
  </style>
</defs>
<rect class="canvas" width="2000" height="960"/>
<rect class="frame" x="48" y="42" width="1904" height="876" rx="34"/>
<text class="title" x="1000" y="104" text-anchor="middle">Clinic Appointment Module Overview</text>
<text class="subtitle" x="1000" y="138" text-anchor="middle">A source-backed map of module ownership and dependency direction.</text>
<g id="root"><rect class="card" x="750" y="230" width="460" height="130" rx="16" fill="#f7fee7" stroke="#65a30d"/><g transform="translate(768 248)"><rect width="44" height="44" rx="10" fill="#65a30d"/><g fill="none" stroke="#fff" stroke-width="2.4" stroke-linecap="round" stroke-linejoin="round"><path d="M16 14h12l6 8-6 8H16l-6-8z"/><path d="M17 22h10"/></g></g><text class="card-title" x="826" y="270">clinic-appointment</text><text class="small" x="1188" y="270" text-anchor="end">Kotlin 2.3 / Java 25</text><text class="detail" x="774" y="304" text-anchor="start"><tspan x="774" dy="0">End-to-end example app: domain scheduling, Solver,</tspan><tspan x="774" dy="19">notifications, API, and Angular UI</tspan></text></g>
<g id="core"><rect class="card" x="130" y="465" width="330" height="115" rx="16" fill="#fff" stroke="#3c987e"/><g transform="translate(148 483)"><rect width="44" height="44" rx="10" fill="#3c987e"/><g fill="none" stroke="#fff" stroke-width="2.3"><ellipse cx="22" cy="13" rx="12" ry="5"/><path d="M10 13v18c0 3 5 5 12 5s12-2 12-5V13"/><path d="M10 22c0 3 5 5 12 5s12-2 12-5"/></g></g><text class="card-title" x="206" y="505">appointment-core</text><text class="detail" x="154" y="539" text-anchor="start"><tspan x="154" dy="0">Leaf domain module: tables,</tspan><tspan x="154" dy="19">repositories, state machine, slots</tspan></text></g>
<g id="event"><rect class="card" x="530" y="465" width="330" height="115" rx="16" fill="#fff" stroke="#d28a28"/><g transform="translate(548 483)"><rect width="44" height="44" rx="10" fill="#d28a28"/><g fill="none" stroke="#fff" stroke-width="2.4" stroke-linecap="round"><path d="M12 16h20M12 22h20M12 28h20"/><path d="M27 11l6 5-6 5M27 23l6 5-6 5"/></g></g><text class="card-title" x="606" y="505">appointment-event</text><text class="detail" x="554" y="539" text-anchor="start"><tspan x="554" dy="0">Spring events plus durable event</tspan><tspan x="554" dy="19">log table</tspan></text></g>
<g id="solver"><rect class="card" x="930" y="465" width="330" height="115" rx="16" fill="#fff" stroke="#8a65d8"/><g transform="translate(948 483)"><rect width="44" height="44" rx="10" fill="#8a65d8"/><g fill="none" stroke="#fff" stroke-width="2.2" stroke-linecap="round"><path d="M16 28c-4-2-5-9 1-12 2-7 13-5 13 3 5 2 4 11-2 12"/><path d="M19 18v12M25 17v14"/></g></g><text class="card-title" x="1006" y="505">appointment-solver</text><text class="detail" x="954" y="539" text-anchor="start"><tspan x="954" dy="0">Timefold batch placement from core</tspan><tspan x="954" dy="19">records</tspan></text></g>
<g id="notification"><rect class="card" x="1330" y="465" width="390" height="115" rx="16" fill="#fff" stroke="#ca5f66"/><g transform="translate(1348 483)"><rect width="44" height="44" rx="10" fill="#ca5f66"/><g fill="none" stroke="#fff" stroke-width="2.4"><rect x="12" y="20" width="20" height="14" rx="3"/><path d="M16 20v-5a6 6 0 0 1 12 0v5"/></g></g><text class="card-title" x="1406" y="505">appointment-notification</text><text class="detail" x="1354" y="539" text-anchor="start"><tspan x="1354" dy="0">Event-driven messages and leader-elected</tspan><tspan x="1354" dy="19">reminders</tspan></text></g>
<g id="api"><rect class="card" x="430" y="680" width="420" height="115" rx="16" fill="#fff" stroke="#4f77c9"/><g transform="translate(448 698)"><rect width="44" height="44" rx="10" fill="#4f77c9"/><g fill="none" stroke="#fff" stroke-width="2.3" stroke-linecap="round" stroke-linejoin="round"><path d="M13 15h18v14H13z"/><path d="M17 22h10M17 28h6"/></g></g><text class="card-title" x="506" y="720">appointment-api</text><text class="detail" x="454" y="754" text-anchor="start"><tspan x="454" dy="0">Spring MVC, JWT tenant checks, Flyway,</tspan><tspan x="454" dy="19">Swagger, SSE</tspan></text></g>
<g id="frontend"><rect class="card" x="1050" y="680" width="420" height="115" rx="16" fill="#fff" stroke="#4aa6b5"/><g transform="translate(1068 698)"><rect width="44" height="44" rx="10" fill="#4aa6b5"/><g fill="none" stroke="#fff" stroke-width="2.3" stroke-linecap="round" stroke-linejoin="round"><path d="M13 15h18v14H13z"/><path d="M17 22h10M17 28h6"/></g></g><text class="card-title" x="1126" y="720">frontend</text><text class="detail" x="1074" y="754" text-anchor="start"><tspan x="1074" dy="0">Angular UI consumes tenant-scoped REST APIs</tspan></text></g>
<path class="route" d="M820 360 L820.0 401.0 Q820 415 806.0 415.0 L309.0 415.0 Q295 415 295.0 429.0 L295 465" stroke="#3c987e" stroke-width="3.2" marker-end="url(#arrow-green)"/>
<path class="route" d="M940 360 L940.0 416.0 Q940 430 926.0 430.0 L709.0 430.0 Q695 430 695.0 444.0 L695 465" stroke="#d28a28" stroke-width="3.2" marker-end="url(#arrow-amber)"/>
<path class="route" d="M1040 360 L1040.0 416.0 Q1040 430 1054.0 430.0 L1081.0 430.0 Q1095 430 1095.0 444.0 L1095 465" stroke="#8a65d8" stroke-width="3.2" marker-end="url(#arrow-purple)"/>
<path class="route" d="M1160 360 L1160.0 401.0 Q1160 415 1174.0 415.0 L1511.0 415.0 Q1525 415 1525.0 429.0 L1525 465" stroke="#ca5f66" stroke-width="3.2" marker-end="url(#arrow-red)"/>
<path class="route" d="M540 680 L540.0 639.0 Q540 625 526.0 625.0 L309.0 625.0 Q295 625 295.0 611.0 L295 580" stroke="#3c987e" stroke-width="2.5" stroke-dasharray="9 7" marker-end="url(#arrow-green)"/>
<path class="route" d="M640 680 L640.0 639.0 Q640 625 654.0 625.0 L681.0 625.0 Q695 625 695.0 611.0 L695 580" stroke="#d28a28" stroke-width="2.5" stroke-dasharray="9 7" marker-end="url(#arrow-amber)"/>
<path class="route" d="M760 680 L760.0 639.0 Q760 625 774.0 625.0 L1081.0 625.0 Q1095 625 1095.0 611.0 L1095 580" stroke="#8a65d8" stroke-width="2.5" stroke-dasharray="9 7" marker-end="url(#arrow-purple)"/>
<path class="route" d="M1470 680 L1470 580" stroke="#ca5f66" stroke-width="2.5" stroke-dasharray="9 7" marker-end="url(#arrow-red)"/>
<path class="route" d="M1050 737 L850 737" stroke="#4f77c9" stroke-width="3.2" marker-end="url(#arrow-blue)"/>
<rect class="note" x="250" y="835" width="1500" height="52" rx="16"/><text class="footer" x="1000" y="868" text-anchor="middle">Dependency direction is intentionally inward: application modules use appointment-core; notification subscribes to events; frontend talks only to the API.</text>
</svg>