<?xml version="1.0" encoding="UTF-8"?>
<svg xmlns="http://www.w3.org/2000/svg" width="1600" height="1220" viewBox="0 0 1600 1220" role="img" aria-labelledby="title desc">
<title id="title">Issue #313 JDBC Caffeine effective policy 파일럿 benchmark</title>
<desc id="desc">기존 EffectivePolicyCache와 test-only JDBC Caffeine 후보의 hot-hit, cold-fill, clinic 무효화, cold-start latency 및 allocation 비교. 로그 스케일이며 production SLO 증거가 아닙니다.</desc>
<style>.background{fill:#f8fafc}.panel{fill:#ffffff;stroke:#cbd5e1;stroke-width:2}.decision{fill:#fff7ed;stroke:#fdba74;stroke-width:2}.title{font:700 34px "goorm Sans", "Apple SD Gothic Neo", sans-serif;fill:#0f172a}.subtitle,.legend,.axis-title,.axis-value,.footnote,.decision-text{font-family:"goorm Sans", "Apple SD Gothic Neo", sans-serif;fill:#475569}.subtitle{font-size:18px}.legend{font-size:15px}.panel-title{font:700 23px "goorm Sans", "Apple SD Gothic Neo", sans-serif;fill:#0f172a}.axis-title{font-size:15px;fill:#64748b}.axis-value{font-size:13px;fill:#64748b}.row-label{font:600 17px "goorm Sans Code", "goorm Sans", monospace;fill:#334155}.value{font:600 14px "goorm Sans Code", monospace;fill:#334155}.grid{stroke:#e2e8f0;stroke-width:1;stroke-dasharray:6 8}.decision-title{font:700 22px "goorm Sans", sans-serif;fill:#9a3412}.decision-text{font-size:16px;fill:#7c2d12}.footnote{font-size:13px;fill:#64748b}</style>
<rect width="1600" height="1220" class="background"/>
<text x="70" y="68" class="title">Issue #313 JDBC Caffeine 정책 캐시 파일럿</text>
<text x="70" y="104" class="subtitle">H2 characterization · warm-up 5회 · 측정 20회 · 로그 스케일 · 낮을수록 좋음</text>
<rect x="1110" y="82" width="18" height="18" rx="4" fill="#2563eb"/>
<text x="1138" y="97" class="legend">기존 EffectivePolicyCache</text>
<rect x="1370" y="82" width="18" height="18" rx="4" fill="#ea580c"/>
<text x="1398" y="97" class="legend">JDBC Caffeine 후보</text>
<rect x="70" y="145" width="1460" height="500" rx="18" class="panel"/><text x="105" y="192" class="panel-title">Latency p50 비교</text><text x="105" y="222" class="axis-title">단위: ns/op · 로그 스케일 · p95는 막대 오른쪽에 함께 표시</text><line x1="365.0" y1="250" x2="365.0" y2="600" class="grid"/><text x="365.0" y="238" class="axis-value" text-anchor="middle">100</text><line x1="650.2" y1="250" x2="650.2" y2="600" class="grid"/><text x="650.2" y="238" class="axis-value" text-anchor="middle">1.0k</text><line x1="935.4" y1="250" x2="935.4" y2="600" class="grid"/><text x="935.4" y="238" class="axis-value" text-anchor="middle">10k</text><line x1="1220.6" y1="250" x2="1220.6" y2="600" class="grid"/><text x="1220.6" y="238" class="axis-value" text-anchor="middle">100k</text><line x1="1420.0" y1="250" x2="1420.0" y2="600" class="grid"/><text x="1420.0" y="238" class="axis-value" text-anchor="middle">500k</text><text x="105" y="278.0" class="row-label">hot-hit 조회</text><rect x="365" y="241.0" width="176.6" height="22" rx="6" fill="#2563eb" data-source="baseline.hot-hit.latencyNanos.p50"/><text x="553.6" y="257.0" class="value">416 ns · p95 5,083</text><rect x="365" y="275.0" width="446.2" height="22" rx="6" fill="#ea580c" data-source="candidate.hot-hit.latencyNanos.p50"/><text x="823.2" y="291.0" class="value">3,667 ns · p95 14,750</text><text x="105" y="364.0" class="row-label">cold-fill 채우기</text><rect x="365" y="327.0" width="351.6" height="22" rx="6" fill="#2563eb" data-source="baseline.cold-fill.latencyNanos.p50"/><text x="728.6" y="343.0" class="value">1,709 ns · p95 4,750</text><rect x="365" y="361.0" width="890.7" height="22" rx="6" fill="#ea580c" data-source="candidate.cold-fill.latencyNanos.p50"/><text x="1267.7" y="377.0" class="value">132,708 ns · p95 213,916</text><text x="105" y="450.0" class="row-label">clinic 무효화</text><rect x="365" y="413.0" width="568.9" height="22" rx="6" fill="#2563eb" data-source="baseline.invalidation.latencyNanos.p50"/><text x="945.9" y="429.0" class="value">9,875 ns · p95 77,167</text><rect x="365" y="447.0" width="839.4" height="22" rx="6" fill="#ea580c" data-source="candidate.invalidation.latencyNanos.p50"/><text x="1216.4" y="463.0" class="value">87,708 ns · p95 258,792</text><text x="105" y="536.0" class="row-label">cold-start 생성</text><rect x="365" y="499.0" width="338.8" height="22" rx="6" fill="#2563eb" data-source="baseline.cold-start.latencyNanos.p50"/><text x="715.8" y="515.0" class="value">1,541 ns · p95 4,666</text><rect x="365" y="533.0" width="968.0" height="22" rx="6" fill="#ea580c" data-source="candidate.cold-start.latencyNanos.p50"/><text x="1345.0" y="549.0" class="value">247,625 ns · p95 329,834</text><text x="1420" y="620" class="axis-title" text-anchor="end">latency · lower is better</text>
<rect x="70" y="675" width="1460" height="360" rx="18" class="panel"/><text x="105" y="722" class="panel-title">Allocation p50 비교</text><text x="105" y="752" class="axis-title">단위: bytes/op · 로그 스케일 · ThreadMXBean 지원 JVM에서 측정</text><line x1="365.0" y1="765" x2="365.0" y2="1000" class="grid"/><text x="365.0" y="755" class="axis-value" text-anchor="middle">1</text><line x1="1038.6" y1="765" x2="1038.6" y2="1000" class="grid"/><text x="1038.6" y="755" class="axis-value" text-anchor="middle">1.0k</text><line x1="1263.1" y1="765" x2="1263.1" y2="1000" class="grid"/><text x="1263.1" y="755" class="axis-value" text-anchor="middle">10k</text><line x1="1420.0" y1="765" x2="1420.0" y2="1000" class="grid"/><text x="1420.0" y="755" class="axis-value" text-anchor="middle">50k</text><text x="105" y="783.0" class="row-label">hot-hit 조회</text><rect x="365" y="752.0" width="377.5" height="20" rx="6" fill="#2563eb" data-source="baseline.hot-hit.allocationBytes.p50"/><text x="754.5" y="767.0" class="value">48 bytes</text><rect x="365" y="782.0" width="452.9" height="20" rx="6" fill="#ea580c" data-source="candidate.hot-hit.allocationBytes.p50"/><text x="829.9" y="797.0" class="value">104 bytes</text><text x="105" y="843.0" class="row-label">cold-fill 채우기</text><rect x="365" y="812.0" width="460.1" height="20" rx="6" fill="#2563eb" data-source="baseline.cold-fill.allocationBytes.p50"/><text x="837.1" y="827.0" class="value">112 bytes</text><rect x="365" y="842.0" width="881.3" height="20" rx="6" fill="#ea580c" data-source="candidate.cold-fill.allocationBytes.p50"/><text x="1258.3" y="857.0" class="value">8,424 bytes</text><text x="105" y="903.0" class="row-label">clinic 무효화</text><rect x="365" y="872.0" width="750.8" height="20" rx="6" fill="#2563eb" data-source="baseline.invalidation.allocationBytes.p50"/><text x="1127.8" y="887.0" class="value">2,208 bytes</text><rect x="365" y="902.0" width="868.9" height="20" rx="6" fill="#ea580c" data-source="candidate.invalidation.allocationBytes.p50"/><text x="1245.9" y="917.0" class="value">7,416 bytes</text><text x="105" y="963.0" class="row-label">cold-start 생성</text><rect x="365" y="932.0" width="626.3" height="20" rx="6" fill="#2563eb" data-source="baseline.cold-start.allocationBytes.p50"/><text x="1003.3" y="947.0" class="value">616 bytes</text><rect x="365" y="962.0" width="989.7" height="20" rx="6" fill="#ea580c" data-source="candidate.cold-start.allocationBytes.p50"/><text x="1366.7" y="977.0" class="value">25,592 bytes</text><text x="1420" y="1015" class="axis-title" text-anchor="end">allocation · lower is better</text>
<rect x="70" y="1065" width="1460" height="92" rx="18" class="decision"/><text x="105" y="1100" class="decision-title">판정: HOLD</text><text x="280" y="1100" class="decision-text">후보 latency p50이 4/4개 프로필에서 baseline보다 높고, 이 결과는 H2 단일 JVM characterization입니다.</text><text x="105" y="1132" class="decision-text">운영 DB·멀티노드·실제 SLO 증거가 없으므로 production EffectivePolicyCache 교체를 승인하지 않습니다.</text>
<text x="70" y="1188" class="footnote">sourceCommit=311befc378aa467b6331b2a78f962101d115b11b · rawPayloadIncluded=false · productionSloEvidence=false · 기본 판정 HOLD</text>
</svg>
